<svg width="1600" height="1200" viewBox="0 0 1600 1200" fill="none" xmlns="http://www.w3.org/2000/svg">
  <defs>
    <linearGradient id="traceBlue" x1="245" y1="176" x2="1120" y2="904" gradientUnits="userSpaceOnUse">
      <stop stop-color="#78D2FF" stop-opacity="0.75"/>
      <stop offset="0.58" stop-color="#2D6FA8" stop-opacity="0.18"/>
      <stop offset="1" stop-color="#78D2FF" stop-opacity="0"/>
    </linearGradient>
    <linearGradient id="traceOrange" x1="1015" y1="192" x2="1372" y2="812" gradientUnits="userSpaceOnUse">
      <stop stop-color="#FFB27A" stop-opacity="0.68"/>
      <stop offset="0.56" stop-color="#FF8D54" stop-opacity="0.14"/>
      <stop offset="1" stop-color="#FFB27A" stop-opacity="0"/>
    </linearGradient>
    <radialGradient id="pulseBlue" cx="0" cy="0" r="1" gradientUnits="userSpaceOnUse" gradientTransform="translate(276 236) rotate(54.9) scale(306 306)">
      <stop stop-color="#66C8FF" stop-opacity="0.38"/>
      <stop offset="1" stop-color="#66C8FF" stop-opacity="0"/>
    </radialGradient>
    <radialGradient id="pulseOrange" cx="0" cy="0" r="1" gradientUnits="userSpaceOnUse" gradientTransform="translate(1292 286) rotate(90) scale(202 202)">
      <stop stop-color="#FFA66D" stop-opacity="0.32"/>
      <stop offset="1" stop-color="#FFA66D" stop-opacity="0"/>
    </radialGradient>
    <filter id="softGlow" x="-40%" y="-40%" width="180%" height="180%" color-interpolation-filters="sRGB">
      <feGaussianBlur stdDeviation="12"/>
    </filter>
    <pattern id="microGrid" width="96" height="96" patternUnits="userSpaceOnUse">
      <path d="M0 95.5H96M95.5 0V96" stroke="#6FBFFF" stroke-opacity="0.055"/>
      <circle cx="0.5" cy="0.5" r="1.5" fill="#7ED0FF" fill-opacity="0.12"/>
    </pattern>
  </defs>

  <rect width="1600" height="1200" fill="url(#microGrid)"/>

  <path d="M112 952C296 856 414 776 548 628C680 482 742 338 888 216" stroke="url(#traceBlue)" stroke-width="1.4" stroke-linecap="round" stroke-dasharray="5 13"/>
  <path d="M184 1010C364 932 536 804 706 590C792 482 876 372 1038 224" stroke="url(#traceBlue)" stroke-width="1.8" stroke-linecap="round"/>
  <path d="M1026 128C1148 210 1242 318 1300 444C1358 570 1384 688 1394 868" stroke="url(#traceOrange)" stroke-width="1.5" stroke-linecap="round" stroke-dasharray="4 11"/>
  <path d="M920 1108C1042 938 1116 810 1164 646C1216 470 1258 328 1364 194" stroke="url(#traceOrange)" stroke-width="1.2" stroke-linecap="round"/>

  <circle cx="276" cy="236" r="306" fill="url(#pulseBlue)"/>
  <circle cx="1292" cy="286" r="202" fill="url(#pulseOrange)"/>

  <g opacity="0.58">
    <circle cx="282" cy="228" r="88" stroke="#72CAFF" stroke-opacity="0.2"/>
    <circle cx="282" cy="228" r="146" stroke="#72CAFF" stroke-opacity="0.1"/>
    <path d="M1104 180C1190 220 1264 304 1314 414" stroke="#FFB17D" stroke-opacity="0.18"/>
    <path d="M238 774C380 744 544 662 664 542" stroke="#74C9FF" stroke-opacity="0.16"/>
  </g>

  <g filter="url(#softGlow)">
    <circle cx="282" cy="228" r="8" fill="#7AD1FF" fill-opacity="0.72"/>
    <circle cx="664" cy="542" r="7" fill="#7AD1FF" fill-opacity="0.42"/>
    <circle cx="1110" cy="188" r="6" fill="#FFB27A" fill-opacity="0.62"/>
    <circle cx="1314" cy="414" r="7" fill="#FFB27A" fill-opacity="0.34"/>
  </g>

  <g opacity="0.48">
    <circle cx="282" cy="228" r="5" fill="#84D7FF"/>
    <circle cx="664" cy="542" r="4" fill="#84D7FF"/>
    <circle cx="1110" cy="188" r="4.5" fill="#FFB37F"/>
    <circle cx="1314" cy="414" r="5" fill="#FFB37F"/>
  </g>

  <path d="M128 1084H478" stroke="#74C9FF" stroke-opacity="0.12" stroke-width="1.5"/>
  <path d="M1120 1090H1470" stroke="#FFB17C" stroke-opacity="0.1" stroke-width="1.5"/>
</svg>
