<svg width="1600" height="760" viewBox="0 0 1600 760" fill="none" xmlns="http://www.w3.org/2000/svg">
  <defs>
    <linearGradient id="bg" x1="180" y1="72" x2="1448" y2="694" gradientUnits="userSpaceOnUse">
      <stop stop-color="#08121B"/>
      <stop offset="0.55" stop-color="#0B1420"/>
      <stop offset="1" stop-color="#101926"/>
    </linearGradient>
    <radialGradient id="haloBlue" cx="0" cy="0" r="1" gradientUnits="userSpaceOnUse" gradientTransform="translate(1074 234) rotate(90) scale(268)">
      <stop stop-color="#6FD0FF" stop-opacity="0.28"/>
      <stop offset="1" stop-color="#6FD0FF" stop-opacity="0"/>
    </radialGradient>
    <radialGradient id="haloOrange" cx="0" cy="0" r="1" gradientUnits="userSpaceOnUse" gradientTransform="translate(1316 186) rotate(90) scale(182)">
      <stop stop-color="#FFAA74" stop-opacity="0.22"/>
      <stop offset="1" stop-color="#FFAA74" stop-opacity="0"/>
    </radialGradient>
    <linearGradient id="deviceEdge" x1="768" y1="332" x2="1196" y2="540" gradientUnits="userSpaceOnUse">
      <stop stop-color="#233347"/>
      <stop offset="1" stop-color="#151F2C"/>
    </linearGradient>
    <linearGradient id="accentBlue" x1="0" y1="0" x2="1" y2="1">
      <stop stop-color="#81D6FF"/>
      <stop offset="1" stop-color="#6C8DFF"/>
    </linearGradient>
    <linearGradient id="accentCyan" x1="0" y1="0" x2="1" y2="1">
      <stop stop-color="#42D9D5"/>
      <stop offset="1" stop-color="#6FD0FF"/>
    </linearGradient>
    <linearGradient id="accentWarm" x1="0" y1="0" x2="1" y2="1">
      <stop stop-color="#FFBF84"/>
      <stop offset="1" stop-color="#FF9660"/>
    </linearGradient>
    <filter id="glow" x="-40%" y="-40%" width="180%" height="180%" color-interpolation-filters="sRGB">
      <feGaussianBlur stdDeviation="14"/>
    </filter>
  </defs>

  <rect width="1600" height="760" rx="30" fill="url(#bg)"/>
  <rect width="1600" height="760" rx="30" fill="url(#haloBlue)"/>
  <rect width="1600" height="760" rx="30" fill="url(#haloOrange)"/>

  <path d="M668 540H1322" stroke="#24354A" stroke-width="18" stroke-linecap="round"/>
  <path d="M936 540V474" stroke="#24354A" stroke-width="10" stroke-linecap="round"/>
  <path d="M1118 540V474" stroke="#24354A" stroke-width="10" stroke-linecap="round"/>

  <rect x="760" y="252" width="264" height="150" rx="34" fill="url(#deviceEdge)" stroke="#28384B"/>
  <rect x="805" y="288" width="174" height="78" rx="24" fill="#3B4656"/>
  <rect x="790" y="406" width="204" height="28" rx="14" fill="url(#accentCyan)"/>
  <circle cx="826" cy="420" r="8" fill="#79E6DE"/>

  <rect x="566" y="310" width="328" height="168" rx="36" fill="#192332" stroke="#243245"/>
  <rect x="606" y="344" width="248" height="96" rx="26" fill="url(#accentBlue)"/>
  <circle cx="640" cy="392" r="48" fill="#90D6FF" fill-opacity="0.12"/>

  <rect x="1008" y="430" width="232" height="124" rx="30" fill="#172231" stroke="#253446"/>
  <rect x="1048" y="468" width="30" height="30" rx="15" fill="#0F1723"/>
  <rect x="1092" y="468" width="30" height="30" rx="15" fill="#0F1723"/>
  <rect x="1136" y="468" width="30" height="30" rx="15" fill="#0F1723"/>
  <rect x="1052" y="516" width="144" height="16" rx="8" fill="url(#accentCyan)"/>

  <path d="M924 252C970 218 1034 196 1110 190" stroke="#31465F" stroke-width="4" stroke-linecap="round"/>
  <path d="M1110 190C1156 186 1204 188 1246 196" stroke="#31465F" stroke-width="4" stroke-linecap="round" stroke-dasharray="4 12"/>
  <path d="M820 468C852 506 886 528 932 540" stroke="#31465F" stroke-width="4" stroke-linecap="round"/>

  <g filter="url(#glow)" opacity="0.72">
    <circle cx="910" cy="226" r="22" fill="#6FD0FF"/>
    <circle cx="1290" cy="168" r="18" fill="#FFAA74"/>
    <circle cx="1140" cy="524" r="16" fill="#41D7D3"/>
  </g>

  <circle cx="910" cy="226" r="7" fill="#8FDBFF"/>
  <circle cx="1290" cy="168" r="6" fill="#FFC08B"/>
  <circle cx="1140" cy="524" r="5" fill="#7AEAE1"/>

  <rect x="980" y="104" width="256" height="256" rx="128" fill="#7C86FF" fill-opacity="0.08"/>
  <rect x="448" y="86" width="190" height="190" rx="95" fill="#3AE8C7" fill-opacity="0.08"/>

  <path d="M1166 254C1208 280 1246 318 1276 374" stroke="url(#accentWarm)" stroke-opacity="0.28" stroke-width="3" stroke-linecap="round"/>
  <path d="M1126 578H1310" stroke="#2A3950" stroke-width="4" stroke-linecap="round"/>
  <path d="M734 584H928" stroke="#223347" stroke-width="4" stroke-linecap="round"/>
</svg>
