<svg width="1600" height="900" viewBox="0 0 1600 900" fill="none" xmlns="http://www.w3.org/2000/svg">
  <defs>
    <linearGradient id="bg" x1="200" y1="80" x2="1410" y2="820" gradientUnits="userSpaceOnUse">
      <stop stop-color="#0C1119"/>
      <stop offset="1" stop-color="#101722"/>
    </linearGradient>
    <linearGradient id="blueAccent" x1="0" y1="0" x2="1" y2="1">
      <stop stop-color="#98D9FF"/>
      <stop offset="1" stop-color="#2EA0FF"/>
    </linearGradient>
    <linearGradient id="cyanAccent" x1="0" y1="0" x2="1" y2="1">
      <stop stop-color="#5DEBDA"/>
      <stop offset="1" stop-color="#69B8FF"/>
    </linearGradient>
    <linearGradient id="orangeAccent" x1="0" y1="0" x2="1" y2="1">
      <stop stop-color="#FFC68D"/>
      <stop offset="1" stop-color="#FF8A1F"/>
    </linearGradient>
    <radialGradient id="glowBlue" cx="0" cy="0" r="1" gradientUnits="userSpaceOnUse" gradientTransform="translate(1210 202) rotate(90) scale(250)">
      <stop stop-color="#2EA0FF" stop-opacity="0.24"/>
      <stop offset="1" stop-color="#2EA0FF" stop-opacity="0"/>
    </radialGradient>
  </defs>

  <rect width="1600" height="900" rx="34" fill="url(#bg)"/>
  <rect width="1600" height="900" rx="34" fill="url(#glowBlue)"/>

  <path d="M180 724H1420" stroke="#1D2635" stroke-width="18" stroke-linecap="round"/>

  <rect x="332" y="404" width="940" height="38" rx="19" fill="url(#cyanAccent)"/>
  <rect x="424" y="190" width="758" height="220" rx="44" fill="#162231" stroke="#25374B"/>
  <rect x="500" y="252" width="606" height="118" rx="30" fill="#0F1620"/>
  <path d="M558 308H842" stroke="url(#blueAccent)" stroke-width="20" stroke-linecap="round"/>
  <path d="M558 344H1006" stroke="#29384A" stroke-width="14" stroke-linecap="round"/>
  <circle cx="1046" cy="310" r="18" fill="#FF8A1F"/>
  <circle cx="1046" cy="310" r="34" fill="#FF8A1F" fill-opacity="0.18"/>

  <rect x="980" y="468" width="262" height="182" rx="32" fill="#182332" stroke="#25374B"/>
  <rect x="1030" y="512" width="162" height="64" rx="20" fill="#283547"/>
  <rect x="1054" y="534" width="114" height="18" rx="9" fill="url(#orangeAccent)"/>
  <rect x="1022" y="594" width="178" height="18" rx="9" fill="url(#cyanAccent)"/>

  <rect x="338" y="490" width="290" height="198" rx="34" fill="#182332" stroke="#25374B"/>
  <ellipse cx="484" cy="592" rx="106" ry="46" fill="url(#blueAccent)"/>
  <ellipse cx="484" cy="592" rx="78" ry="30" fill="#0F1620"/>
  <circle cx="484" cy="592" r="10" fill="#F5F8FC"/>
  <path d="M454 592H514" stroke="#F5F8FC" stroke-opacity="0.28" stroke-width="5" stroke-linecap="round"/>

  <rect x="654" y="512" width="258" height="176" rx="30" fill="#182332" stroke="#25374B"/>
  <rect x="694" y="550" width="178" height="56" rx="18" fill="#263446"/>
  <rect x="724" y="568" width="118" height="18" rx="9" fill="url(#blueAccent)"/>
  <path d="M736 632H832" stroke="#2C3A4C" stroke-width="14" stroke-linecap="round"/>

  <circle cx="1260" cy="160" r="86" fill="#7A89FF" fill-opacity="0.08"/>
  <circle cx="258" cy="182" r="72" fill="#2EA0FF" fill-opacity="0.08"/>
  <path d="M1130 214C1190 238 1242 280 1284 340" stroke="#32455E" stroke-width="4" stroke-linecap="round"/>
  <path d="M566 738H1130" stroke="#243344" stroke-width="5" stroke-linecap="round"/>
</svg>
